<?xml version="1.0" standalone="no"?>
<!DOCTYPE svg PUBLIC "-//W3C//DTD SVG 20010904//EN"
 "http://www.w3.org/TR/2001/REC-SVG-20010904/DTD/svg10.dtd">
<svg version="1.0" xmlns="http://www.w3.org/2000/svg"
 width="366.000000pt" height="366.000000pt" viewBox="0 0 366.000000 366.000000"
 preserveAspectRatio="xMidYMid meet">
<metadata>
Created by potrace 1.11, written by Peter Selinger 2001-2013
</metadata>
<g transform="translate(0.000000,366.000000) scale(0.100000,-0.100000)"
fill="#000000" stroke="none">
<path d="M1668 3329 c-56 -13 -164 -64 -207 -98 l-38 -30 -23 24 c-58 61 -175
83 -255 46 -159 -72 -166 -305 -12 -382 23 -12 43 -23 45 -24 2 -2 -5 -40 -14
-86 -29 -146 -9 -276 62 -387 19 -29 34 -54 34 -56 0 -2 -15 -9 -32 -16 -151
-56 -272 -132 -333 -206 -20 -24 -48 -69 -63 -101 -23 -50 -27 -71 -27 -148 0
-77 3 -96 25 -133 22 -38 23 -45 10 -65 -61 -96 -61 -127 -6 -327 54 -193 76
-232 155 -272 81 -41 122 -37 370 32 210 59 215 60 270 48 72 -15 240 -15 313
1 55 12 60 11 269 -48 135 -39 232 -61 264 -61 83 1 168 49 202 114 21 40 103
339 103 375 0 37 -26 110 -47 133 -15 17 -14 22 12 73 25 51 27 62 23 143 -5
103 -32 169 -99 245 -55 63 -171 139 -271 177 -46 18 -84 33 -86 35 -2 1 11
23 28 49 72 106 95 249 66 396 -10 47 -14 86 -9 87 4 2 26 13 48 26 114 65
140 224 52 324 -41 47 -99 73 -163 73 -61 0 -107 -17 -154 -58 l-34 -30 -36
28 c-49 39 -130 78 -197 95 -62 16 -185 18 -245 4z m253 -79 c158 -48 304
-192 387 -383 35 -80 36 -86 37 -207 l0 -125 -39 -73 c-81 -152 -250 -265
-430 -287 l-56 -7 2 223 3 223 37 9 c39 9 88 56 88 84 0 24 -54 70 -96 82
-143 40 -282 -51 -204 -134 12 -13 38 -27 59 -32 l36 -9 3 -223 2 -223 -57 7
c-182 23 -355 141 -431 294 -36 73 -37 78 -37 185 0 97 4 121 28 188 50 135
139 252 257 336 123 89 273 115 411 72z m-621 -42 c70 -36 71 -47 14 -121 -27
-36 -61 -85 -76 -111 -15 -25 -31 -46 -35 -46 -5 0 -23 9 -41 20 -73 45 -95
142 -47 213 14 20 27 37 28 37 1 0 20 7 42 15 54 19 64 19 115 -7z m1113 -5
c64 -32 87 -134 47 -201 -18 -29 -73 -72 -93 -72 -4 0 -20 21 -35 46 -15 26
-48 74 -74 108 -26 33 -48 66 -48 72 0 17 35 45 77 60 41 14 81 10 126 -13z
m-566 -484 c27 -10 28 -11 8 -26 -23 -17 -128 -14 -147 5 -26 26 83 42 139 21z
m-488 -477 c57 -45 120 -77 206 -108 73 -26 92 -28 220 -28 127 0 148 3 219
27 85 30 149 63 210 111 l39 30 39 -44 c82 -95 168 -313 168 -425 0 -42 -2
-44 -54 -74 -71 -40 -95 -81 -140 -245 -21 -77 -44 -139 -56 -151 -24 -26
-109 -69 -189 -96 -131 -46 -341 -46 -472 0 -73 25 -170 75 -191 97 -9 11 -35
84 -58 163 -46 162 -66 195 -140 235 -47 26 -50 30 -50 67 0 111 77 313 160
417 22 29 43 52 46 52 3 0 23 -13 43 -28z m-181 -29 c-2 -5 -25 -51 -51 -103
-46 -92 -87 -239 -87 -313 0 -15 -6 -29 -12 -31 -7 -1 -35 -10 -61 -18 -46
-15 -50 -15 -68 3 -26 26 -32 59 -27 143 4 61 10 80 40 128 20 30 57 73 82 94
72 61 199 128 184 97z m1295 -25 c85 -46 170 -128 204 -196 36 -75 40 -185 7
-229 -24 -30 -25 -30 -99 -10 l-49 14 -12 79 c-15 110 -39 185 -87 278 -23 45
-43 84 -45 89 -7 15 22 6 81 -25z m-1340 -515 c45 -23 73 -80 117 -243 36
-135 40 -159 31 -191 -24 -80 -93 -129 -181 -129 -110 0 -144 41 -199 237 -22
81 -41 163 -41 181 0 124 153 206 273 145z m1489 -4 c49 -25 80 -71 85 -128 5
-54 -66 -321 -95 -361 -35 -46 -81 -70 -136 -70 -92 1 -160 47 -186 126 -10
29 -8 48 10 117 67 252 79 281 128 313 56 37 124 38 194 3z m-1211 -448 c28
-17 30 -20 13 -29 -11 -5 -34 -13 -51 -17 -35 -7 -39 -2 -27 43 8 27 24 28 65
3z m812 2 c2 -10 8 -27 12 -37 8 -17 5 -18 -31 -12 -21 4 -47 12 -57 18 -18 9
-17 11 9 28 37 24 60 25 67 3z"/>
<path d="M1392 2848 c-37 -37 12 -113 57 -88 35 18 45 48 26 76 -17 26 -62 33
-83 12z"/>
<path d="M2095 2836 c-19 -28 -9 -58 26 -76 45 -25 94 51 57 88 -21 21 -66 14
-83 -12z"/>
<path d="M2835 703 c9 -105 12 -113 39 -113 27 0 30 9 41 118 l7 62 -47 0 -47
0 7 -67z"/>
<path d="M3038 734 c-32 -17 -58 -62 -58 -99 0 -48 28 -82 110 -134 70 -44 80
-54 80 -79 0 -58 -62 -78 -149 -47 l-41 14 0 -38 c0 -37 2 -39 38 -45 112 -18
208 7 236 63 38 73 7 133 -104 201 -78 47 -95 75 -69 107 10 11 27 14 69 10
30 -2 63 -8 73 -12 14 -6 17 -2 17 28 0 28 -5 36 -22 41 -43 11 -153 5 -180
-10z"/>
<path d="M517 543 c-42 -109 -79 -206 -83 -216 -6 -16 -2 -18 27 -15 30 3 35
8 55 58 l22 55 87 3 86 3 26 -61 26 -60 44 0 c23 0 43 3 43 6 0 3 -37 100 -81
215 l-82 209 -47 0 -47 0 -76 -197z m145 24 c15 -39 28 -75 28 -79 0 -5 -30
-8 -66 -8 -36 0 -64 4 -62 8 2 4 16 42 32 85 16 43 31 75 34 72 3 -3 18 -38
34 -78z"/>
<path d="M910 525 l0 -215 145 0 145 0 0 30 0 29 -97 3 -98 3 -3 183 -2 182
-45 0 -45 0 0 -215z"/>
<path d="M1260 525 l0 -215 45 0 45 0 0 90 0 90 75 0 75 0 0 30 0 29 -72 3
-73 3 -3 62 -3 62 93 3 93 3 3 28 3 27 -140 0 -141 0 0 -215z"/>
<path d="M1600 525 l0 -215 45 0 45 0 0 90 c0 88 1 90 24 90 19 0 34 -17 77
-90 l54 -90 53 0 c28 0 52 2 52 5 0 3 -26 42 -58 87 -32 46 -62 88 -65 95 -4
6 8 26 27 45 41 41 54 94 36 139 -20 48 -54 59 -180 59 l-110 0 0 -215z m191
134 c41 -41 -2 -109 -67 -109 l-34 0 0 65 0 65 40 0 c27 0 47 -7 61 -21z"/>
<path d="M2010 525 l0 -215 145 0 145 0 0 30 0 29 -97 3 -98 3 0 65 0 65 73 3
c69 3 72 4 72 27 0 23 -3 24 -72 27 l-73 3 -3 57 -3 57 93 3 93 3 3 28 3 27
-140 0 -141 0 0 -215z"/>
<path d="M2370 525 l0 -215 118 0 c107 0 123 2 170 26 84 42 122 126 107 239
-8 69 -38 114 -95 143 -39 19 -59 22 -172 22 l-128 0 0 -215z m235 143 c39
-18 65 -76 65 -145 0 -103 -57 -158 -158 -151 l-47 3 -3 153 -3 152 60 0 c33
0 72 -5 86 -12z"/>
</g>
</svg>
